<svg width="113" height="117" viewBox="0 0 113 117" fill="none" xmlns="http://www.w3.org/2000/svg">
<path d="M101.527 50.9908C101.527 79.1522 78.7995 101.982 50.7632 101.982C22.7276 101.982 0 79.1522 0 50.9908C0 22.8294 22.7276 0 50.7632 0C78.7995 0 101.527 22.8294 101.527 50.9908Z" fill="#9B7EDE"/>
<mask id="mask0_1_30" style="mask-type:alpha" maskUnits="userSpaceOnUse" x="15" y="18" width="98" height="99">
<path d="M70.0016 18.4892L15.5025 59.8239L58.4756 116.992L112.975 75.6566L70.0016 18.4892Z" fill="#512EA3"/>
</mask>
<g mask="url(#mask0_1_30)">
<path d="M101.578 51.285C101.578 79.3209 78.9519 102.049 51.0413 102.049C23.1304 102.049 0.50415 79.3209 0.50415 51.285C0.50415 23.2494 23.1304 0.522003 51.0413 0.522003C78.9519 0.522003 101.578 23.2494 101.578 51.285Z" fill="#8561D9"/>
</g>
<path d="M46.5882 79.9076C66.0068 79.9076 81.7489 67.3564 81.7489 51.8738C81.7489 36.3909 66.0068 23.8398 46.5882 23.8398C27.1692 23.8398 11.4272 36.3909 11.4272 51.8738C11.4272 67.3564 27.1692 79.9076 46.5882 79.9076Z" fill="#F47C99"/>
<path d="M20.2176 68.4289H32.5239V83.881C32.5239 85.3439 31.3432 86.5296 29.8868 86.5296H22.8545C21.3981 86.5296 20.2176 85.3439 20.2176 83.881V68.4289Z" fill="#F47C99"/>
<path d="M57.5758 68.4289H69.8822V83.881C69.8822 85.3439 68.7014 86.5296 67.2451 86.5296H60.2129C58.7562 86.5296 57.5758 85.3439 57.5758 83.881V68.4289Z" fill="#F47C99"/>
<path d="M77.4291 63.1898L77.7546 47.1828L84.3763 47.3185C85.8326 47.3486 86.9889 48.5588 86.9588 50.0213L86.7413 60.7311C86.7116 62.1936 85.5067 63.3551 84.0509 63.325L77.4291 63.1898Z" fill="#F47C99"/>
<path d="M67.0255 48.1213C68.6033 48.1213 69.8822 46.9352 69.8822 45.4723C69.8822 44.0094 68.6033 42.8233 67.0255 42.8233C65.4477 42.8233 64.1688 44.0094 64.1688 45.4723C64.1688 46.9352 65.4477 48.1213 67.0255 48.1213Z" fill="#525252"/>
<path d="M11.078 38.7479C11.6677 38.2617 12.5275 38.3234 13.044 38.8889L16.328 42.4846C17.018 43.2396 16.6498 44.4706 15.6629 44.7084C15.2214 44.8148 14.7571 44.6834 14.4325 44.3617L10.979 40.934C10.3621 40.3217 10.4084 39.3 11.078 38.7479Z" fill="#F47C99"/>
<path d="M52.2487 27.1916C52.2487 26.5819 51.7785 26.1669 51.1496 26.0878L48.5125 25.8507L47.1942 25.8111L45.8754 25.7716L43.2383 25.8507L40.6016 26.0878C39.9749 26.1669 39.5027 26.5819 39.5027 27.1916C39.5027 27.8011 39.9947 28.2223 40.6016 28.2223L43.2383 28.0642L45.8754 27.9851L48.5125 28.0642L51.1496 28.2223C51.7565 28.2223 52.2487 27.8011 52.2487 27.1916Z" fill="#8561D9"/>
<path d="M69.6245 18.4804C67.8588 18.2873 66.0686 18.5503 64.4011 19.2482C62.7341 19.9461 61.2371 21.0587 60.0339 22.4948C58.8299 23.9311 57.9538 25.6497 57.4777 27.51C57.0011 29.3702 56.9376 31.319 57.2923 33.1962L68.3134 30.5776L69.6245 18.4804Z" fill="#F47C99"/>
<path d="M46.8078 21.6324C51.784 21.6324 55.8178 17.5805 55.8178 12.5821C55.8178 7.58377 51.784 3.53183 46.8078 3.53183C41.8319 3.53183 37.7979 7.58377 37.7979 12.5821C37.7979 17.5805 41.8319 21.6324 46.8078 21.6324Z" fill="#FFDB1E"/>
<path d="M46.8078 19.8664C50.8132 19.8664 54.0597 16.6051 54.0597 12.5821C54.0597 8.55906 50.8132 5.29773 46.8078 5.29773C42.8029 5.29773 39.556 8.55906 39.556 12.5821C39.556 16.6051 42.8029 19.8664 46.8078 19.8664Z" fill="#F5B91D"/>
<path d="M15.1873 37.1097C13.77 39.6361 12.2758 40.95 12.2758 41.7739C12.2758 42.5978 9.12811 39.4048 9.12811 36.8726C9.12811 34.3401 11.8823 32.2084 14.007 32.8408C15.4411 32.8408 15.7381 36.1277 15.1873 37.1097Z" fill="#F47C99"/>
<path d="M12.984 36.1277C12.984 36.6811 12.4496 37.5507 12.2758 37.5507C12.1019 37.5507 11.7249 36.7661 11.7249 36.2858C11.7249 35.8055 12.5741 35.0209 12.7479 35.0209C12.9217 35.0209 13.0627 35.6534 12.984 36.1277Z" fill="#9B7EDE"/>
<path d="M13.8496 39.0527C13.8496 39.7512 10.938 41.8986 8.81337 41.7406C7.31826 41.5034 5.27228 40.2385 6.21657 38.8946C7.31826 38.2622 7.9478 40.0014 9.91506 39.2108C11.0884 39.2108 13.8496 38.3542 13.8496 39.0527Z" fill="#F47C99"/>
</svg>
